HIERARCHY
ROOT hip
{
  OFFSET 0 0 0
  CHANNELS 6 Xposition Yposition Zposition Zrotation Yrotation Xrotation
  JOINT abdomen
  {
    OFFSET 0 20.6881 -0.73152
    CHANNELS 3 Zrotation Xrotation Yrotation
    JOINT chest
    {
      OFFSET 0 11.7043 -0.48768
      CHANNELS 3 Zrotation Xrotation Yrotation
      JOINT neck
      {
        OFFSET 0 22.1894 -2.19456
        CHANNELS 3 Zrotation Xrotation Yrotation
        JOINT head
        {
          OFFSET -0.24384 7.07133 1.2192
          CHANNELS 3 Zrotation Xrotation Yrotation
          JOINT leftEye
          {
            OFFSET 4.14528 8.04674 8.04672
            CHANNELS 3 Zrotation Xrotation Yrotation
            End Site
            {
              OFFSET 1 0 0
            }
          }
          JOINT rightEye
          {
            OFFSET -3.6576 8.04674 8.04672
            CHANNELS 3 Zrotation Xrotation Yrotation
            End Site
            {
              OFFSET 1 0 0
            }
          }
        }
      }
      JOINT rCollar
      {
        OFFSET -2.68224 19.2634 -4.8768
        CHANNELS 3 Zrotation Xrotation Yrotation
        JOINT rShldr
        {
          OFFSET -8.77824 -1.95073 1.46304
          CHANNELS 3 Zrotation Xrotation Yrotation
          JOINT rForeArm
          {
            OFFSET -28.1742 -1.7115 0.48768
            CHANNELS 3 Zrotation Xrotation Yrotation
            JOINT rHand
            {
              OFFSET -22.5879 0.773209 7.07136
              CHANNELS 3 Zrotation Xrotation Yrotation
              JOINT rThumb1
              {
                OFFSET -1.2192 -0.487915 3.41376
                CHANNELS 3 Zrotation Xrotation Yrotation
                JOINT rThumb2
                {
                  OFFSET -3.37035 -0.52449 3.41376
                  CHANNELS 3 Zrotation Xrotation Yrotation
                  End Site
                  {
                    OFFSET -1.78271 -1.18214 1.43049
                  }
                }
              }
              JOINT rIndex1
              {
                OFFSET -7.75947 0.938293 5.60832
                CHANNELS 3 Zrotation Xrotation Yrotation
                JOINT rIndex2
                {
                  OFFSET -2.54057 -0.884171 1.56538
                  CHANNELS 3 Zrotation Xrotation Yrotation
                  End Site
                  {
                    OFFSET -1.62519 -0.234802 1.16502
                  }
                }
              }
              JOINT rMid1
              {
                OFFSET -8.24714 1.18213 3.41376
                CHANNELS 3 Zrotation Xrotation Yrotation
                JOINT rMid2
                {
                  OFFSET -3.10165 -0.590103 1.0647
                  CHANNELS 3 Zrotation Xrotation Yrotation
                  End Site
                  {
                    OFFSET -2.48547 -0.328903 0.83742
                  }
                }
              }
              JOINT rRing1
              {
                OFFSET -8.82822 0.546677 1.51678
                CHANNELS 3 Zrotation Xrotation Yrotation
                JOINT rRing2
                {
                  OFFSET -2.60934 -0.819778 -0.0198488
                  CHANNELS 3 Zrotation Xrotation Yrotation
                  End Site
                  {
                    OFFSET -2.33842 -0.294052 0.168128
                  }
                }
              }
              JOINT rPinky1
              {
                OFFSET -8.27202 -0.0477905 -0.4584
                CHANNELS 3 Zrotation Xrotation Yrotation
                JOINT rPinky2
                {
                  OFFSET -1.82734 -0.647385 -0.700984
                  CHANNELS 3 Zrotation Xrotation Yrotation
                  End Site
                  {
                    OFFSET -1.69225 -0.51767 -0.607171
                  }
                }
              }
            }
          }
        }
      }
      JOINT lCollar
      {
        OFFSET 2.68224 19.2634 -4.8768
        CHANNELS 3 Zrotation Xrotation Yrotation
        JOINT lShldr
        {
          OFFSET 8.77824 -1.95073 1.46304
          CHANNELS 3 Zrotation Xrotation Yrotation
          JOINT lForeArm
          {
            OFFSET 28.1742 -1.7115 0.48768
            CHANNELS 3 Zrotation Xrotation Yrotation
            JOINT lHand
            {
              OFFSET 22.5879 0.773209 7.07136
              CHANNELS 3 Zrotation Xrotation Yrotation
              JOINT lThumb1
              {
                OFFSET 1.2192 -0.487915 3.41376
                CHANNELS 3 Zrotation Xrotation Yrotation
                JOINT lThumb2
                {
                  OFFSET 3.37035 -0.52449 3.41376
                  CHANNELS 3 Zrotation Xrotation Yrotation
                  End Site
                  {
                    OFFSET 1.78271 -1.18214 1.43049
                  }
                }
              }
              JOINT lIndex1
              {
                OFFSET 7.75947 0.938293 5.60832
                CHANNELS 3 Zrotation Xrotation Yrotation
                JOINT lIndex2
                {
                  OFFSET 2.54057 -0.884171 1.56538
                  CHANNELS 3 Zrotation Xrotation Yrotation
                  End Site
                  {
                    OFFSET 1.62519 -0.234802 1.16502
                  }
                }
              }
              JOINT lMid1
              {
                OFFSET 8.24714 1.18213 3.41376
                CHANNELS 3 Zrotation Xrotation Yrotation
                JOINT lMid2
                {
                  OFFSET 3.10165 -0.590103 1.0647
                  CHANNELS 3 Zrotation Xrotation Yrotation
                  End Site
                  {
                    OFFSET 2.48547 -0.328903 0.83742
                  }
                }
              }
              JOINT lRing1
              {
                OFFSET 8.82822 0.546677 1.51678
                CHANNELS 3 Zrotation Xrotation Yrotation
                JOINT lRing2
                {
                  OFFSET 2.60934 -0.819778 -0.0198488
                  CHANNELS 3 Zrotation Xrotation Yrotation
                  End Site
                  {
                    OFFSET 2.33842 -0.294052 0.168128
                  }
                }
              }
              JOINT lPinky1
              {
                OFFSET 8.27202 -0.0477905 -0.4584
                CHANNELS 3 Zrotation Xrotation Yrotation
                JOINT lPinky2
                {
                  OFFSET 1.82734 -0.647385 -0.700984
                  CHANNELS 3 Zrotation Xrotation Yrotation
                  End Site
                  {
                    OFFSET 1.69225 -0.51767 -0.607171
                  }
                }
              }
            }
          }
        }
      }
    }
  }
  JOINT rButtock
  {
    OFFSET -8.77824 4.35084 1.2192
    CHANNELS 3 Zrotation Xrotation Yrotation
    JOINT rThigh
    {
      OFFSET 0 -1.70687 -2.19456
      CHANNELS 3 Zrotation Xrotation Yrotation
      JOINT rShin
      {
        OFFSET 0 -36.8199 0.73152
        CHANNELS 3 Zrotation Xrotation Yrotation
        JOINT rFoot
        {
          OFFSET 0.73152 -45.1104 -5.12064
          CHANNELS 3 Zrotation Xrotation Yrotation
          End Site
          {
            OFFSET -1.1221 -3.69964 12.103
          }
        }
      }
    }
  }
  JOINT lButtock
  {
    OFFSET 8.77824 4.35084 1.2192
    CHANNELS 3 Zrotation Xrotation Yrotation
    JOINT lThigh
    {
      OFFSET 0 -1.70687 -2.19456
      CHANNELS 3 Zrotation Xrotation Yrotation
      JOINT lShin
      {
        OFFSET 0 -36.8199 0.73152
        CHANNELS 3 Zrotation Xrotation Yrotation
        JOINT lFoot
        {
          OFFSET -0.73152 -45.1104 -5.12064
          CHANNELS 3 Zrotation Xrotation Yrotation
          End Site
          {
            OFFSET 1.1221 -3.69964 12.103
          }
        }
      }
    }
  }
}
MOTION
Frames:	4
Frame Time:	0.03333
-0.026871720100395596 32.74184367334428 0.6629121741060798 8.024198532104492 13.49470043182373 10.060100555419922 -6.785299301147461 9.993749618530273 -8.850059509277344 4.926509857177734 -10.919699668884277 -2.061469554901123 -6.106150150299072 11.881499290466309 -2.679450035095215 8.323078155517578 -30.674097061157227 -2.657059669494629 -0.0 0.0 -0.0 -0.0 0.0 -0.0 1.3994439830057603e-13 -3.1805545068312735e-13 4.452776309563783e-13 55.56589889526367 31.63019371032715 -10.321599006652832 -27.826400756835938 -29.661699295043945 66.70919799804688 -0.024593399837613106 4.472259998321533 0.6298270225524902 2.326257630969053e-09 1.1333906257959825e-08 -6.189480039608952e-09 3.999356401607201e-09 1.9683598750930287e-08 -1.06978967906457e-08 2.3262702875115338e-09 1.1333906257959825e-08 -6.189480039608952e-09 7.7309088706970215 5.474880218505859 0.41731396317481995 2.326257630969053e-09 1.1333906257959825e-08 -6.1894671610218666e-09 2.9055399894714355 0.9651829600334167 0.10290198773145676 2.3262702875115338e-09 1.1333906257959825e-08 -6.1894671610218666e-09 10.27859878540039 0.73180091381073 0.025912299752235413 2.326257630969053e-09 1.1333906257959825e-08 -6.189460943772929e-09 2.2216696739196777 -0.7334870100021362 -0.2089199721813202 1.3994439830057603e-13 -3.1805545068312735e-13 4.452776309563783e-13 -34.63239669799805 31.845802307128906 -55.901397705078125 28.35109519958496 -37.775299072265625 -80.02019500732422 0.7837580442428589 -24.303102493286133 3.6387600898742676 3.464387110518885e-10 2.642035701327927e-09 1.2926091308429477e-09 5.888605714154949e-10 4.589285840239654e-09 2.224149087126648e-09 3.464132869446246e-10 2.642035701327927e-09 1.2926282266789713e-09 -7.7309088706970215 5.474880218505859 -0.41731396317481995 3.464387110518885e-10 2.6420230447854465e-09 1.2926218984077309e-09 -2.9055399894714355 0.9651829600334167 -0.10290198773145676 3.464387110518885e-10 2.6420230447854465e-09 1.2926091308429477e-09 -10.27859878540039 0.73180091381073 -0.025912299752235413 3.464387110518885e-10 2.642048357870408e-09 1.2926091308429477e-09 -2.2216696739196777 -0.7334870100021362 0.2089199721813202 -0.0 0.0 -0.0 -38.70649719238281 -64.02009582519531 -39.79189682006836 -2.9035699367523193 75.00049591064453 3.707239866256714 -4.946089744567871 -7.641789436340332 -16.74329948425293 -0.0 0.0 -0.0 6.443488597869873 2.9788997173309326 3.5252597332000732 0.30742889642715454 53.22199630737305 -2.9203100204467773 3.0471298694610596 -7.882190704345703 22.442901611328125
-0.017818987207708033 33.119539474067636 1.2776959004733408 7.659998893737793 12.10090160369873 9.236400604248047 -4.795719623565674 10.103099822998047 -10.10689926147461 4.366339683532715 -10.879400253295898 -2.408550262451172 -6.148169040679932 11.62179946899414 -1.8738996982574463 7.742800235748291 -30.17289924621582 -1.1958699226379395 -0.0 0.0 -0.0 -0.0 0.0 -0.0 1.2722218027325094e-13 -2.9261101462847716e-13 1.5902772534156367e-13 57.6746940612793 30.683401107788086 -12.25260066986084 -27.75709342956543 -29.320402145385742 66.16559600830078 -0.042645297944545746 5.932420253753662 0.8366648554801941 1.9473263002112162e-09 2.6039073119932254e-09 -3.842237195073039e-09 3.350968613702321e-09 4.5714365626281506e-09 -6.644649275244774e-09 1.947338956753697e-09 2.60389443340614e-09 -3.842237195073039e-09 7.7309088706970215 5.474880218505859 0.41731396317481995 1.947338956753697e-09 2.60389443340614e-09 -3.842237195073039e-09 2.9055399894714355 0.9651829600334167 0.10290198773145676 1.947338956753697e-09 2.6039073119932254e-09 -3.842237195073039e-09 10.27859878540039 0.73180091381073 0.025912299752235413 1.9473263002112162e-09 2.6039073119932254e-09 -3.842230533734892e-09 2.2216696739196777 -0.7334870100021362 -0.2089199721813202 1.2722218027325094e-13 -2.9261101462847716e-13 1.5902772534156367e-13 -34.55609893798828 29.585100173950195 -54.16709518432617 28.345598220825195 -37.83940124511719 -80.13229370117188 0.7342560887336731 -23.56439971923828 3.5146801471710205 -3.2314432379942915e-11 1.970976937215596e-09 5.163121596929443e-10 -5.469281624814748e-11 3.4039311369582492e-09 8.812107710198802e-10 -3.232715484191573e-11 1.970976937215596e-09 5.163312000178166e-10 -7.7309088706970215 5.474880218505859 -0.41731396317481995 -3.2314432379942915e-11 1.9709642806731154e-09 5.163248717465763e-10 -2.9055399894714355 0.9651829600334167 -0.10290198773145676 -3.2314432379942915e-11 1.9709642806731154e-09 5.163121596929443e-10 -10.27859878540039 0.73180091381073 -0.025912299752235413 -3.2314432379942915e-11 1.970976937215596e-09 5.163121596929443e-10 -2.2216696739196777 -0.7334870100021362 0.2089199721813202 -0.0 0.0 -0.0 -31.899696350097656 -63.47899627685547 -32.47779846191406 -2.692539691925049 74.05799865722656 3.4488699436187744 -4.96042013168335 -8.009359359741211 -17.169597625732422 -0.0 0.0 -0.0 7.366638660430908 -1.0321799516677856 2.4815099239349365 0.7728347182273865 62.060298919677734 -3.1918396949768066 1.529539942741394 -9.011449813842773 8.872758865356445
-0.025840396553783382 33.39708079589652 2.079836838415929 7.280600547790527 10.825299263000488 8.455799102783203 -2.7491095066070557 10.1343994140625 -11.281499862670898 3.785670042037964 -10.753399848937988 -2.741179943084717 -6.204219341278076 11.497599601745605 -1.087419867515564 6.9473395347595215 -29.73849868774414 0.16433699429035187 -0.0 0.0 -0.0 -0.0 0.0 -0.0 1.0177774421860075e-13 -2.6716657857382697e-13 -1.2722218027325094e-13 59.37739944458008 29.67949867248535 -14.20199966430664 -27.708698272705078 -29.09149932861328 65.80099487304688 -0.05891618877649307 6.9096598625183105 0.9758719801902771 1.5204068004592841e-09 -3.3859037795735958e-09 -1.2429670626090683e-09 2.6223034854666594e-09 -5.821636062108837e-09 -2.1545585315863036e-09 1.5204068004592841e-09 -3.3859037795735958e-09 -1.242960734337828e-09 7.7309088706970215 5.474880218505859 0.41731396317481995 1.5204068004592841e-09 -3.3859037795735958e-09 -1.242960734337828e-09 2.9055399894714355 0.9651829600334167 0.10290198773145676 1.5204068004592841e-09 -3.3859037795735958e-09 -1.242960734337828e-09 10.27859878540039 0.73180091381073 0.025912299752235413 1.5203941439168034e-09 -3.385891123031115e-09 -1.2429479667730448e-09 2.2216696739196777 -0.7334870100021362 -0.2089199721813202 1.0177774421860075e-13 -2.6716657857382697e-13 -1.2722218027325094e-13 -34.5802001953125 27.44129753112793 -51.970699310302734 28.34819793701172 -37.8129997253418 -80.08499145507812 0.7270430326461792 -23.471601486206055 3.4987099170684814 -3.8592848361496124e-10 1.0694168883773614e-09 -1.0948104922636759e-10 -6.597869472990681e-10 1.8314141314590415e-09 -1.9962431707654105e-10 -3.8592848361496124e-10 1.0694168883773614e-09 -1.0946196726813184e-10 -7.7309088706970215 5.474880218505859 -0.41731396317481995 -3.8592848361496124e-10 1.0694168883773614e-09 -1.094746862606577e-10 -2.9055399894714355 0.9651829600334167 -0.10290198773145676 -3.8592848361496124e-10 1.0694168883773614e-09 -1.0948104922636759e-10 -10.27859878540039 0.73180091381073 -0.025912299752235413 -3.8592848361496124e-10 1.0694168883773614e-09 -1.0948104922636759e-10 -2.2216696739196777 -0.7334870100021362 0.2089199721813202 -0.0 0.0 -0.0 -25.974197387695312 -62.215396881103516 -26.24519920349121 -2.4818196296691895 72.99549102783203 3.191079616546631 -4.982059001922607 -8.388439178466797 -17.575700759887695 -0.0 0.0 -0.0 8.379220008850098 -6.118209362030029 1.9058798551559448 1.6501895189285278 71.48159790039062 -3.9065299034118652 -0.2237660139799118 -10.968700408935547 -3.0470399856567383
-0.04457611571028412 33.80519825918312 2.9707861904636976 6.887299060821533 9.453200340270996 7.561199188232422 -0.660430908203125 9.979840278625488 -12.336099624633789 3.2472801208496094 -10.72510051727295 -3.0496299266815186 -6.101069450378418 11.448399543762207 -0.2304989993572235 5.808350086212158 -29.202802658081055 1.5541800260543823 -0.0 0.0 -0.0 -0.0 0.0 -0.0 1.0177774421860075e-13 -2.035554884372015e-13 -1.8447216139621386e-13 60.3528938293457 29.050302505493164 -16.180999755859375 -27.70730209350586 -29.08609962463379 65.79529571533203 -0.05037869140505791 6.366939544677734 0.8986029028892517 8.724515554447976e-10 -3.950159754850802e-09 7.819711544954089e-11 1.5074301806805579e-09 -6.821284426195007e-09 1.3169404455837252e-10 8.724642674984295e-10 -3.9501721893486774e-09 7.818438951812112e-11 7.7309088706970215 5.474880218505859 0.41731396317481995 8.724515554447976e-10 -3.9501721893486774e-09 7.819711544954089e-11 2.9055399894714355 0.9651829600334167 0.10290198773145676 8.724642674984295e-10 -3.950159754850802e-09 7.819711544954089e-11 10.27859878540039 0.73180091381073 0.025912299752235413 8.724515554447976e-10 -3.950159754850802e-09 7.820347147635687e-11 2.2216696739196777 -0.7334870100021362 -0.2089199721813202 1.0177774421860075e-13 -2.035554884372015e-13 -1.8447216139621386e-13 -34.9413948059082 25.470800399780273 -49.202598571777344 28.35479736328125 -37.71269989013672 -79.9180908203125 0.8134540915489197 -24.757999420166016 3.7151198387145996 -8.560780556665648e-11 1.777293867633034e-10 4.200939873744147e-10 -1.5474033165929768e-10 3.209433829809427e-10 7.254845058035642e-10 -8.560780556665648e-11 1.777293867633034e-10 4.201130832104383e-10 -7.7309088706970215 5.474880218505859 -0.41731396317481995 -8.560780556665648e-11 1.777293867633034e-10 4.201003711568063e-10 -2.9055399894714355 0.9651829600334167 -0.10290198773145676 -8.562052455918234e-11 1.7774211269472318e-10 4.200939873744147e-10 -10.27859878540039 0.73180091381073 -0.025912299752235413 -8.560780556665648e-11 1.777293867633034e-10 4.2008763134759874e-10 -2.2216696739196777 -0.7334870100021362 0.2089199721813202 -0.0 0.0 -0.0 -20.96359634399414 -60.36250305175781 -21.3804988861084 -2.255709409713745 71.72549438476562 2.9220893383026123 -4.919150352478027 -8.57681941986084 -17.669498443603516 -0.0 0.0 -0.0 9.984477996826172 -11.801799774169922 3.239959716796875 4.200809955596924 80.59129333496094 -6.411159992218018 -0.4005289375782013 -11.640999794006348 -3.3939599990844727
